<svg width="48" height="73" viewBox="0 0 48 73" fill="none" xmlns="http://www.w3.org/2000/svg">
<path fill-rule="evenodd" clip-rule="evenodd" d="M14.2594 1.12254C14.7458 0.609896 15.4214 0.31958 16.1281 0.31958H30.9141C31.5978 0.31958 32.2535 0.591428 32.7367 1.07523L46.8186 15.1752C47.4675 15.8249 47.7215 16.771 47.4851 17.6584L33.4032 70.5332C33.1028 71.6613 32.0814 72.4463 30.9141 72.4463H16.1281C14.9488 72.4463 13.9201 71.6454 13.6308 70.5021L0.253052 17.6273C0.0363872 16.771 0.273626 15.8633 0.881615 15.2225L14.2594 1.12254ZM17.235 5.47149L5.5956 17.7392L18.1335 67.2943H28.9344L42.125 17.7661L29.8461 5.47149H17.235Z" fill="#75585A"/>
<path fill-rule="evenodd" clip-rule="evenodd" d="M32.0308 22.4728C32.9316 22.4728 33.6622 23.2226 33.6622 24.1471V27.4959C33.6622 28.4204 32.9316 29.1703 32.0308 29.1703H27.1365V40.8908C27.1365 41.8154 26.4059 42.5652 25.505 42.5652H22.2421C21.3413 42.5652 20.6107 41.8154 20.6107 40.8908V29.1703H15.7164C14.8155 29.1703 14.085 28.4204 14.085 27.4959V24.1471C14.085 23.2226 14.8155 22.4728 15.7164 22.4728H20.6107V17.4497C20.6107 16.5251 21.3413 15.7753 22.2421 15.7753H25.505C26.4059 15.7753 27.1365 16.5251 27.1365 17.4497V22.4728H32.0308Z" fill="#75585A"/>
</svg>
