<svg width="54" height="74" viewBox="0 0 54 74" fill="none" xmlns="http://www.w3.org/2000/svg">
<path fill-rule="evenodd" clip-rule="evenodd" d="M28.9994 25.6851V7.37168H24.8671V25.6851H7.21109V30.4748H24.8671V67.1016H28.9994V30.4748H46.6554V25.6851H28.9994ZM49.0032 18.9232C51.4406 18.9232 53.4172 20.9735 53.4172 23.5016V32.6583C53.4172 35.1864 51.4406 37.2366 49.0032 37.2366H35.7612V69.2851C35.7612 71.8132 33.7846 73.8635 31.3472 73.8635H22.5192C20.0819 73.8635 18.1052 71.8132 18.1052 69.2851V37.2366H4.86322C2.42586 37.2366 0.449219 35.1864 0.449219 32.6583V23.5016C0.449219 20.9735 2.42586 18.9232 4.86322 18.9232H18.1052V5.18816C18.1052 2.66005 20.0819 0.609802 22.5192 0.609802H31.3472C33.7846 0.609802 35.7612 2.66005 35.7612 5.18816V18.9232H49.0032Z" fill="#75585A"/>
</svg>
