<svg width="56" height="55" viewBox="0 0 56 55" fill="none" xmlns="http://www.w3.org/2000/svg">
<path d="M27.4373 0C31.4132 3.31325 36.9795 12.988 27.4373 25.1807C23.4614 18.5542 18.1602 11.9277 27.4373 0Z" fill="#C36552"/>
<path d="M27.4373 29.8193C31.4132 33.1326 36.9795 42.8073 27.4373 55.0001C23.4614 48.3736 18.1602 41.747 27.4373 29.8193Z" fill="#C36552"/>
<path d="M52.4848 14.4041C51.6034 19.504 46.008 29.1619 30.6776 26.9945C34.4284 20.238 37.5165 12.3338 52.4848 14.4041Z" fill="#C36552"/>
<path d="M52.4848 41.6713C51.6034 36.5714 46.008 26.9136 30.6776 29.0809C34.4284 35.8374 37.5165 43.7417 52.4848 41.6713Z" fill="#C36552"/>
<path d="M2.90292 14.4041C3.78433 19.504 9.37973 29.1619 24.7101 26.9945C20.9593 20.238 17.8712 12.3338 2.90292 14.4041Z" fill="#C36552"/>
<path d="M2.90292 41.6713C3.78433 36.5714 9.37973 26.9136 24.7101 29.0809C20.9593 35.8374 17.8712 43.7417 2.90292 41.6713Z" fill="#C36552"/>
</svg>
