<svg width="83" height="90" viewBox="0 0 83 90" fill="none" xmlns="http://www.w3.org/2000/svg">
<path d="M44.8179 46.0605C54.4037 47.5959 75.3451 45.3696 82.4239 24.1818C68.0451 25.3333 56.9845 21.8787 44.8179 46.0605Z" fill="#F6AE5C"/>
<path d="M65.833 21.8787C55.2148 23.7212 47.3987 33.3939 44.8179 37.9999C44.8179 18.4242 55.8785 10.3636 65.833 8.06055C68.0451 11.5151 66.9391 18.4242 65.833 21.8787Z" fill="#F6AE5C"/>
<path d="M38.1816 46.0605C28.5958 47.5959 7.65437 45.3696 0.575581 24.1818C14.9544 25.3333 26.015 21.8787 38.1816 46.0605Z" fill="#F6AE5C"/>
<path d="M17.1665 21.8787C27.7847 23.7212 35.6008 33.3939 38.1816 37.9999C38.1816 18.4242 27.121 10.3636 17.1665 8.06055C14.9544 11.5151 16.0604 18.4242 17.1665 21.8787Z" fill="#F6AE5C"/>
<path d="M41.4997 25.3333C45.5552 21.1111 51.233 10.1333 41.4997 0C35.9693 5.75758 33.7572 17.2727 41.4997 25.3333Z" fill="#F6AE5C"/>
<path d="M44.8179 53.2641C51.8229 52.1125 67.6027 53.7247 74.6815 69.3853C64.727 69.3853 54.7724 71.6883 44.8179 53.2641Z" fill="#75722D"/>
<path d="M41.4997 58.7273C46.2927 64.101 53.0028 77.8424 41.4997 89.8182C34.8634 82.9091 32.6512 67.9394 41.4997 58.7273Z" fill="#75722D"/>
<path d="M39.2876 53.2641C32.2825 52.1125 16.5027 53.7247 9.42396 69.3853C19.3785 69.3853 29.3331 71.6883 39.2876 53.2641Z" fill="#75722D"/>
</svg>
