<svg width="53" height="74" viewBox="0 0 53 74" fill="none" xmlns="http://www.w3.org/2000/svg">
<path fill-rule="evenodd" clip-rule="evenodd" d="M26.6683 27.7667C28.1991 27.7667 29.44 29.0076 29.44 30.5384V57.6743C30.1005 57.0688 30.8151 56.505 31.5811 55.9839C36.3302 52.7531 42.8367 51.3009 50.2025 51.3009C51.7333 51.3009 52.9742 52.5418 52.9742 54.0726C52.9742 60.5794 50.1779 65.646 45.2896 68.9715C40.5405 72.2024 34.034 73.6545 26.6683 73.6545C19.3025 73.6545 12.796 72.2024 8.0469 68.9715C3.15859 65.646 0.362305 60.5794 0.362305 54.0726C0.362305 52.5418 1.60326 51.3009 3.13405 51.3009C10.4998 51.3009 17.0063 52.7531 21.7554 55.9839C22.5214 56.505 23.236 57.0688 23.8965 57.6743V30.5384C23.8965 29.0076 25.1375 27.7667 26.6683 27.7667ZM23.6318 68.0147C23.0002 64.7858 21.2598 62.3514 18.6373 60.5673C15.6908 58.5628 11.4792 57.2882 6.17053 56.9408C6.80207 60.1696 8.54254 62.604 11.165 64.3881C14.1115 66.3926 18.3231 67.6673 23.6318 68.0147ZM29.7047 68.0147C35.0134 67.6673 39.225 66.3926 42.1715 64.3881C44.794 62.604 46.5344 60.1696 47.166 56.9408C41.8573 57.2882 37.6457 58.5628 34.6992 60.5673C32.0767 62.3514 30.3363 64.7858 29.7047 68.0147Z" fill="#75585A"/>
<path fill-rule="evenodd" clip-rule="evenodd" d="M14.074 1.11756C16.5682 0.621442 19.1535 0.87607 21.5029 1.84925C23.5349 2.69091 25.3115 4.03733 26.6685 5.7537C28.0256 4.03733 29.8022 2.69091 31.8341 1.84925C34.1836 0.87607 36.7689 0.621442 39.2631 1.11756C41.7572 1.61369 44.0483 2.83828 45.8465 4.63648C47.6447 6.43468 48.8693 8.72573 49.3654 11.2199C49.8615 13.7141 49.6069 16.2994 48.6337 18.6488C47.7921 20.6808 46.4456 22.4574 44.7293 23.8144C46.4456 25.1715 47.7921 26.9481 48.6337 28.98C49.6069 31.3295 49.8615 33.9148 49.3654 36.409C48.8693 38.9031 47.6447 41.1942 45.8465 42.9924C44.0483 44.7906 41.7572 46.0152 39.2631 46.5113C36.7689 47.0074 34.1836 46.7528 31.8341 45.7796C29.8022 44.9379 28.0256 43.5915 26.6685 41.8752C25.3115 43.5915 23.5349 44.9379 21.5029 45.7796C19.1535 46.7528 16.5682 47.0074 14.074 46.5113C11.5798 46.0152 9.28879 44.7906 7.49059 42.9924C5.69239 41.1942 4.4678 38.9031 3.97167 36.409C3.47555 33.9148 3.73018 31.3295 4.70336 28.98C5.54502 26.9481 6.89144 25.1715 8.6078 23.8144C6.89144 22.4574 5.54502 20.6808 4.70336 18.6488C3.73018 16.2994 3.47555 13.7141 3.97167 11.2199C4.4678 8.72573 5.69239 6.43468 7.49059 4.63648C9.28879 2.83828 11.5798 1.61369 14.074 1.11756ZM16.5825 26.5862C15.1358 26.5862 13.7217 27.0152 12.5188 27.8189C11.316 28.6226 10.3785 29.7649 9.82488 31.1014C9.27128 32.438 9.12643 33.9086 9.40866 35.3275C9.69088 36.7463 10.3875 38.0496 11.4104 39.0725C12.4334 40.0955 13.7367 40.7921 15.1555 41.0743C16.5743 41.3565 18.045 41.2117 19.3815 40.6581C20.718 40.1045 21.8604 39.167 22.6641 37.9641C23.4678 36.7613 23.8968 35.3472 23.8968 33.9005V30.5385C23.8968 29.0077 25.1377 27.7667 26.6685 27.7667C28.1993 27.7667 29.4403 29.0077 29.4403 30.5385V33.9005C29.4403 35.3472 29.8693 36.7613 30.673 37.9641C31.4767 39.167 32.619 40.1045 33.9555 40.6581C35.2921 41.2117 36.7627 41.3565 38.1816 41.0743C39.6004 40.7921 40.9037 40.0955 41.9266 39.0725C42.9496 38.0496 43.6462 36.7463 43.9284 35.3275C44.2106 33.9086 44.0658 32.438 43.5122 31.1014C42.9586 29.7649 42.0211 28.6226 40.8183 27.8189C39.6154 27.0152 38.2013 26.5862 36.7546 26.5862H33.3926C31.8618 26.5862 30.6208 25.3452 30.6208 23.8144C30.6208 22.2836 31.8618 21.0427 33.3926 21.0427H36.7546C38.2013 21.0427 39.6154 20.6137 40.8183 19.81C42.0211 19.0063 42.9586 17.8639 43.5122 16.5274C44.0658 15.1909 44.2106 13.7202 43.9284 12.3014C43.6462 10.8825 42.9496 9.57925 41.9266 8.55632C40.9037 7.53339 39.6004 6.83677 38.1816 6.55455C36.7627 6.27232 35.2921 6.41717 33.9555 6.97077C32.619 7.52438 31.4767 8.46188 30.673 9.66471C29.8693 10.8676 29.4403 12.2817 29.4403 13.7283V17.0904C29.4403 18.6212 28.1993 19.8621 26.6685 19.8621C25.1377 19.8621 23.8968 18.6212 23.8968 17.0904V13.7283C23.8968 12.2817 23.4678 10.8676 22.6641 9.66471C21.8604 8.46188 20.718 7.52438 19.3815 6.97077C18.045 6.41717 16.5743 6.27232 15.1555 6.55455C13.7367 6.83677 12.4334 7.53339 11.4104 8.55632C10.3875 9.57925 9.69088 10.8825 9.40866 12.3014C9.12643 13.7202 9.27128 15.1909 9.82488 16.5274C10.3785 17.8639 11.316 19.0063 12.5188 19.81C13.7217 20.6137 15.1358 21.0427 16.5825 21.0427H19.9445C21.4753 21.0427 22.7162 22.2836 22.7162 23.8144C22.7162 25.3452 21.4753 26.5862 19.9445 26.5862H16.5825Z" fill="#75585A"/>
</svg>
