<svg width="126" height="85" viewBox="0 0 126 85" fill="none" xmlns="http://www.w3.org/2000/svg">
<path d="M63.421 67.3474C82.1095 67.3474 97.2596 52.2711 97.2596 33.6737C97.2596 15.0762 82.1095 0 63.421 0C44.7325 0 29.5825 15.0762 29.5825 33.6737C29.5825 52.2711 44.7325 67.3474 63.421 67.3474Z" fill="#545454"/>
<path d="M63.4208 32.4888C66.4323 32.4888 68.8718 30.0844 68.8718 27.1108C68.8718 24.1372 66.4323 21.7328 63.4208 21.7328C60.4093 21.7328 57.9697 24.1372 57.9697 27.1108C57.9697 30.0844 60.4093 32.4888 63.4208 32.4888Z" fill="#66FF66"/>
<path d="M63.4325 14.6821C59.4989 14.6821 55.6587 15.8669 52.4371 18.0739C49.2038 20.2925 46.7409 23.4171 45.3752 27.0528C44.0096 30.6885 43.7994 34.6494 44.7799 38.4012C45.7604 42.1531 47.8848 45.5216 50.873 48.0538C51.5967 48.6694 52.3554 49.227 53.1608 49.7265C56.6275 51.887 60.6895 52.8975 64.7866 52.6187C68.8719 52.34 72.7589 50.7719 75.8871 48.1583C76.9843 47.2407 77.9648 46.2185 78.8285 45.0918C79.4939 44.2206 80.0775 43.2914 80.5911 42.3157C82.0852 39.4234 82.8089 36.1943 82.6805 32.9419C82.5521 29.6895 81.5833 26.5301 79.8557 23.7655C78.1399 20.9894 75.7237 18.7011 72.8406 17.1098C69.9691 15.5185 66.7242 14.6821 63.4209 14.6821H63.4325ZM77.3111 42.1647C76.9493 42.0021 76.5991 41.8162 76.2606 41.6071L76.1089 41.5258C75.8754 41.3864 75.7353 41.3051 75.6186 41.2238C75.4085 41.0844 75.1751 40.9567 74.9416 40.8521C74.358 40.5966 73.751 40.4107 73.1324 40.3062C72.6655 40.2249 72.1986 40.1784 71.7317 40.1784C71.5566 40.1784 71.3698 40.19 71.2064 40.2481C71.043 40.3062 70.8796 40.3991 70.7512 40.5153C70.6228 40.6314 70.5178 40.7824 70.4477 40.945C70.3777 41.1077 70.331 41.2819 70.331 41.4561C70.331 41.6304 70.366 41.8046 70.436 41.9672C70.5061 42.1298 70.5994 42.2808 70.7278 42.397C70.8562 42.5248 71.008 42.6177 71.1714 42.6758C71.3348 42.7339 71.5216 42.7687 71.6967 42.7571C72.0118 42.7571 72.3387 42.7919 72.6538 42.85C73.0624 42.9197 73.4709 43.0359 73.8444 43.1985C73.9728 43.2566 74.0895 43.3262 74.1946 43.3959C74.323 43.4772 74.4981 43.5818 74.7665 43.7444L74.8949 43.8141C75.105 43.9303 75.3852 44.1045 75.7003 44.2671C74.8949 45.1615 73.9961 45.9746 73.0157 46.6715C72.2803 46.4508 71.5216 46.3463 70.7629 46.3579C69.8174 46.3579 68.8719 46.5205 67.9848 46.869C67.4129 47.1129 66.8643 47.3917 66.339 47.7053C66.0939 47.8563 65.9888 47.926 65.8721 47.9957C65.8254 48.0306 65.7787 48.0654 65.7204 48.0886C65.1834 48.3907 64.5998 48.5765 63.9812 48.6462C63.7711 48.6694 63.561 48.6694 63.3508 48.6694C62.7556 48.6694 62.1603 48.5649 61.5883 48.3907C61.3665 48.321 61.1564 48.228 60.9463 48.1235C60.7596 48.0306 60.5728 47.9144 60.4094 47.7983L60.351 47.7518C59.7791 47.3801 59.1721 47.0781 58.5418 46.8342C57.7014 46.5205 56.8143 46.3579 55.9038 46.3579H55.8454C55.1568 46.3579 54.4564 46.4392 53.7911 46.6251C52.9157 45.9862 52.1103 45.2777 51.3749 44.4878C51.8651 44.2671 52.3437 44.0232 52.7989 43.7444C53.1141 43.5586 53.3359 43.4192 53.4643 43.3379L53.5109 43.303C54.0012 42.9894 54.8299 42.8035 55.9038 42.7687C56.0789 42.7687 56.254 42.7339 56.4174 42.6642C56.5808 42.5945 56.7325 42.5015 56.8493 42.3738C56.9777 42.246 57.0711 42.095 57.1294 41.9324C57.1878 41.7697 57.2228 41.5955 57.2111 41.4213C57.2111 41.2471 57.1644 41.0728 57.0827 40.9218C57.0127 40.7592 56.896 40.6198 56.7676 40.5037C56.6392 40.3875 56.4758 40.2946 56.3123 40.2365C56.1489 40.1784 55.9622 40.1552 55.7871 40.1668C54.188 40.2249 52.974 40.5385 52.0519 41.1309L51.9819 41.1774C51.8768 41.2471 51.69 41.3632 51.4332 41.5258C50.9897 41.793 50.5345 42.0253 50.0559 42.2228C49.9275 42.2692 49.7991 42.3041 49.6707 42.3389C48.9937 41.2935 48.4334 40.1784 48.0132 39.0052C48.5968 38.8891 49.1688 38.7032 49.7057 38.4593C49.9625 38.3431 50.2193 38.2038 50.4528 38.0528C50.5812 37.9714 50.7562 37.8669 51.0247 37.7043L51.1998 37.6114C51.6083 37.3558 52.0402 37.1351 52.4838 36.9377C53.1841 36.6821 53.9195 36.5543 54.6549 36.566H54.6782C55.3785 36.5543 56.0672 36.6705 56.7209 36.9144C57.2578 37.1235 57.7714 37.3791 58.2616 37.6927L58.32 37.7391C58.6118 37.9482 58.927 38.1341 59.2421 38.2967C59.604 38.4825 59.9775 38.6335 60.3627 38.7613C61.2965 39.0517 62.2653 39.2143 63.2458 39.2375H63.5143C63.8061 39.2375 64.0862 39.2259 64.378 39.1911C65.4636 39.0749 66.5141 38.7381 67.4712 38.2154C67.6113 38.1341 67.7514 38.0528 67.8798 37.9598C67.9498 37.9134 68.0315 37.8553 68.2533 37.7275C68.7319 37.4371 69.2338 37.1816 69.759 36.9609C70.4477 36.6937 71.1831 36.566 71.9184 36.5776C72.5954 36.566 73.2725 36.6705 73.9144 36.8912C74.4864 37.1119 75.0233 37.3907 75.5369 37.7043C75.8404 37.8785 76.0505 38.0179 76.1789 38.0992L76.2606 38.1457C77.0427 38.6219 77.9064 38.9355 78.8169 39.0633C78.42 40.1436 77.9064 41.189 77.2878 42.1647H77.3111ZM63.4325 17.5628C65.5803 17.5628 67.7047 17.981 69.689 18.7824C71.6733 19.5839 73.4709 20.7803 74.9883 22.2671C76.5057 23.7655 77.708 25.5427 78.5251 27.4942C79.3421 29.4456 79.774 31.5364 79.774 33.6621C79.774 34.6261 79.6807 35.5902 79.5172 36.5427C78.8869 36.4846 78.2683 36.2872 77.7197 35.9736L77.6613 35.9387C77.5212 35.8458 77.2644 35.6832 76.9026 35.4741C76.2489 35.0675 75.5603 34.7191 74.8482 34.4403C73.9144 34.1034 72.9223 33.9408 71.9184 33.9641C70.8446 33.9641 69.7824 34.1499 68.7902 34.5332C68.1482 34.8004 67.5179 35.1256 66.911 35.4857C66.6075 35.6599 66.4791 35.7529 66.3857 35.8342C66.3273 35.8806 66.2573 35.9155 66.1873 35.9503C65.3235 36.4382 64.343 36.6821 63.3508 36.6473C62.6388 36.6356 61.9268 36.5195 61.2381 36.2988C60.9813 36.2059 60.7245 36.1013 60.4794 35.9852C60.2576 35.869 60.0359 35.7412 59.8374 35.6019L59.7674 35.5554C59.1137 35.1372 58.4251 34.7888 57.713 34.5216C56.7676 34.1615 55.7637 33.9873 54.7482 33.9873H54.6899C53.6277 33.9873 52.5888 34.1731 51.5967 34.5332C51.0014 34.7772 50.4294 35.0675 49.8925 35.4044L49.7407 35.4857C49.4256 35.6716 49.2272 35.7877 49.0754 35.8806C48.9353 35.9736 48.7953 36.0549 48.6435 36.1246C48.235 36.3104 47.8148 36.4382 47.3712 36.5079C46.951 34.1848 47.0561 31.8152 47.6747 29.5385C48.2933 27.2618 49.4022 25.1478 50.9313 23.3474C52.4604 21.547 54.3747 20.095 56.5458 19.0961C58.7052 18.0971 61.063 17.586 63.4559 17.586L63.4325 17.5628Z" fill="#66FF66"/>
<path d="M0.108036 74.5579C0.769351 74.6243 1.10328 74.9695 1.10328 75.5935V82.7625C1.10328 83.1542 1.01161 83.3998 0.82828 83.5126C0.638397 83.6255 0.396134 83.6852 0.0949411 83.6852C0.0491075 83.6852 0.0229168 83.6985 0.0098215 83.7317C-0.00327383 83.7649 -0.00327383 83.798 0.0098215 83.8246C0.0229168 83.8578 0.0491075 83.8711 0.0883935 83.8777C1.08364 83.8777 2.13127 83.8777 3.23127 83.8777C3.26401 83.8711 3.2902 83.8578 3.3033 83.8246C3.30984 83.798 3.30984 83.7649 3.3033 83.7317C3.2902 83.6985 3.26401 83.6852 3.21818 83.6852C2.91699 83.6852 2.67472 83.6255 2.48484 83.5126C2.29496 83.3998 2.19674 83.1475 2.19674 82.7692V75.7461C2.19674 75.2217 2.44555 74.8898 2.94318 74.7438C3.0152 74.7239 3.08068 74.7172 3.14615 74.7172C3.68306 74.7172 4.10211 74.9496 4.39676 75.4076C4.6914 75.8656 4.842 76.3502 4.842 76.8547V77.6512C4.842 78.0827 4.73724 78.5142 4.53426 78.9457C4.33128 79.3771 4.01699 79.6825 3.60449 79.8551C3.36223 79.9679 3.11996 80.0277 2.89079 80.0277H2.78603C2.77294 80.0343 2.75984 80.0409 2.74675 80.0476C2.73365 80.0608 2.7271 80.0741 2.7271 80.094C2.73365 80.1272 2.75329 80.1471 2.78603 80.1538C2.82532 80.1538 2.8646 80.1538 2.90389 80.1538C3.11996 80.1604 3.3033 80.1538 3.4408 80.1405C3.5783 80.1339 3.77473 80.094 4.01699 80.0343C5.36581 79.5431 6.04022 78.7332 6.04022 77.5981V76.9078C6.04022 76.2573 5.88308 75.7329 5.56879 75.3412C5.2545 74.9496 4.90093 74.6774 4.51462 74.5181C4.30509 74.4318 4.09556 74.3853 3.88604 74.3654C3.67651 74.3522 3.43425 74.3522 3.1527 74.3588C3.07413 74.3654 2.98901 74.3654 2.90389 74.3654H0.108036C0.0818458 74.3654 0.0622028 74.3721 0.0425598 74.392C0.0229168 74.4119 0.0163692 74.4318 0.0163692 74.465C0.0163692 74.4915 0.0229168 74.5115 0.0425598 74.5314C0.0622028 74.5513 0.0818458 74.5579 0.108036 74.5579Z" fill="black"/>
<path d="M9.43191 83.1674C9.49739 83.2869 9.52358 83.3931 9.51048 83.4927C9.49084 83.5989 9.39917 83.6653 9.21584 83.7118C9.1831 83.7184 9.15691 83.7184 9.13072 83.725C9.10453 83.725 9.08489 83.725 9.06524 83.7317C9.01941 83.7383 8.98667 83.7516 8.96703 83.7715C8.94738 83.798 8.96048 83.818 9.00631 83.8379C9.0456 83.8578 9.12417 83.8711 9.24203 83.8711H11.2194C11.2391 83.8711 11.2522 83.8644 11.2653 83.8512C11.2784 83.8379 11.2849 83.8246 11.2849 83.8047C11.2849 83.7848 11.2784 83.7649 11.2653 83.7516C11.2522 83.7449 11.2391 83.7383 11.2194 83.7383C10.9641 83.7317 10.7807 83.6586 10.6563 83.5193C10.5319 83.3931 10.4403 83.267 10.401 83.1475C10.0016 82.0722 9.60215 80.9902 9.20274 79.9148C8.92119 79.1382 8.62655 78.3748 8.345 77.6048C8.04381 76.868 7.73607 76.8879 7.42178 77.6579L5.12355 83.2405C5.04498 83.3666 4.91402 83.4728 4.73724 83.5458C4.5539 83.6255 4.38366 83.6786 4.23961 83.7118C4.18723 83.7184 4.13485 83.725 4.08247 83.7317C4.07592 83.7317 4.06283 83.7383 4.04973 83.7449C4.03664 83.7516 4.03009 83.7649 4.02354 83.7781C4.01699 83.798 4.01699 83.8113 4.02354 83.8246C4.03009 83.8379 4.05628 83.8512 4.09557 83.8578C4.13485 83.8644 4.19378 83.8711 4.2658 83.8711H6.5182C6.53784 83.8711 6.55749 83.8644 6.57058 83.8512C6.58368 83.8379 6.59023 83.8246 6.59023 83.8047C6.59023 83.7848 6.58368 83.7649 6.57058 83.7516C6.55749 83.7449 6.53784 83.7383 6.5182 83.7383C6.16463 83.7184 5.94855 83.6255 5.86998 83.4396C5.79141 83.267 5.80451 83.0546 5.91582 82.8023L6.50511 81.3088H8.73131L9.43191 83.1674ZM6.60332 81.03L7.60511 78.4876L8.56107 81.03H6.60332Z" fill="black"/>
<path d="M17.5248 77.1932C17.5445 77.1932 17.5576 77.1866 17.5772 77.1733C17.5903 77.16 17.5969 77.1468 17.6034 77.1268C17.6034 77.1069 17.5969 77.0937 17.5903 77.0804C17.5772 77.0671 17.5576 77.0605 17.5379 77.0605C16.9814 77.0605 16.4576 77.0605 15.9796 77.0671C15.1742 77.0737 14.3099 77.0737 13.3867 77.0671C12.9218 77.0737 12.6206 77.2065 12.4831 77.472C12.3391 77.7375 12.326 78.0628 12.4504 78.4412C12.47 78.4876 12.5028 78.5142 12.5486 78.5208C12.5879 78.5275 12.6272 78.5208 12.6599 78.4943C12.6926 78.4744 12.7057 78.4412 12.6992 78.3947C12.6141 78.0562 12.6665 77.8172 12.8563 77.6911C13.0397 77.565 13.4129 77.5118 13.9825 77.5384L15.6456 77.5318C15.6456 77.5318 15.5147 77.784 15.2528 78.2819C14.9909 78.7797 14.6831 79.3639 14.3361 80.0608C13.9891 80.7578 13.6552 81.342 13.3605 81.9062C13.0593 82.4704 12.8629 82.8422 12.7712 83.0214C12.7712 83.0214 12.7516 83.0612 12.7188 83.1342C12.6796 83.2073 12.6206 83.2936 12.5421 83.3865C12.4635 83.4861 12.3653 83.5657 12.2409 83.6387C12.1165 83.7118 11.9593 83.7449 11.7825 83.7516C11.7629 83.7516 11.7498 83.7582 11.7367 83.7649C11.717 83.7781 11.7105 83.798 11.7105 83.818C11.704 83.8379 11.7105 83.8512 11.7236 83.8644C11.7367 83.8777 11.7498 83.8843 11.7694 83.8843C12.3391 83.8843 12.9087 83.8843 13.4784 83.8777C14.4736 83.8711 15.4754 83.8711 16.4837 83.8777C16.9355 83.8711 17.204 83.7317 17.2826 83.4661C17.3611 83.2006 17.3349 82.8754 17.1974 82.497C17.1713 82.4373 17.1385 82.3974 17.0927 82.3908C17.0468 82.3842 17.0141 82.3974 16.9814 82.424C16.9486 82.4572 16.9355 82.497 16.9486 82.5435C17.132 83.1874 16.7784 83.4728 15.8814 83.3998L13.6617 83.4064C13.6617 83.4064 13.7927 83.1542 14.0611 82.6563C14.323 82.1585 14.6308 81.5743 14.9843 80.9039C15.3314 80.2334 15.6587 79.6227 15.9534 79.032C16.248 78.4677 16.4445 78.1026 16.5427 77.9234C16.5427 77.9234 16.5689 77.8836 16.6147 77.8106C16.6605 77.7375 16.7326 77.6512 16.8242 77.5517C16.9093 77.4521 17.0141 77.3724 17.132 77.2994C17.2498 77.2264 17.3808 77.1932 17.5248 77.1932Z" fill="black"/>
<path d="M19.1421 84.1631C19.2731 83.8246 19.3189 83.5259 19.2731 83.2604C19.2272 82.9948 19.1421 82.8023 19.0177 82.6762C18.8933 82.5501 18.7492 82.4904 18.5725 82.4904C18.3957 82.4904 18.2516 82.5501 18.1272 82.6762C18.0028 82.8023 17.9373 82.9484 17.9373 83.1143C17.9373 83.2803 18.0028 83.4263 18.1272 83.5524C18.2516 83.6786 18.3957 83.7383 18.5725 83.7383H18.5986V83.9308C18.5986 84.1366 18.4939 84.4087 18.2844 84.7606C18.7231 84.7008 19.0111 84.5017 19.1421 84.1631Z" fill="black"/>
<path d="M30.0636 82.8886C30.1094 83.0679 30.1815 83.2073 30.1618 83.3467C30.1422 83.4861 30.0112 83.5856 29.7886 83.6454C29.7493 83.652 29.71 83.6586 29.6642 83.6653C29.638 83.6653 29.6118 83.6653 29.5856 83.6719C29.5202 83.6786 29.4809 83.7051 29.4612 83.7383C29.4416 83.7715 29.4547 83.8047 29.5136 83.8312C29.566 83.8644 29.6707 83.8777 29.8279 83.8711H32.388C32.4142 83.8711 32.4339 83.8644 32.4535 83.8445C32.4731 83.8246 32.4797 83.8047 32.4797 83.7781C32.4797 83.7516 32.4731 83.7317 32.4535 83.7118C32.4339 83.6918 32.4142 83.6852 32.388 83.6852C32.0606 83.6719 31.8184 83.5724 31.6612 83.3865C31.4975 83.2073 31.3862 83.028 31.3339 82.8621C30.7839 81.2955 30.2404 79.7289 29.71 78.1557C29.3565 77.1401 29.0029 76.1179 28.6493 75.1022C28.2499 74.0734 27.857 74.0999 27.4511 75.1819L24.4457 82.9948C24.3475 83.1741 24.1838 83.3135 23.9415 83.4197C23.6993 83.5325 23.4897 83.6055 23.2999 83.6454C23.2278 83.6653 23.1624 83.6719 23.0969 83.6719C23.0969 83.6719 22.9267 83.7516 23.0707 83.8445C23.1165 83.8644 23.2082 83.8711 23.3326 83.8711H26.2725C26.2922 83.8711 26.3183 83.8644 26.338 83.8445C26.3576 83.8246 26.3642 83.8047 26.3642 83.7781C26.3642 83.7516 26.3576 83.7317 26.338 83.7118C26.3183 83.6918 26.2987 83.6852 26.2725 83.6852C25.8142 83.6653 25.5326 83.5259 25.4279 83.2736C25.3165 83.028 25.3362 82.736 25.4802 82.3842L26.1154 80.4591H29.219L30.0636 82.8886ZM26.41 79.8484L27.7326 76.2573L28.9963 79.8484H26.41Z" fill="black"/>
<path d="M42.4649 83.7449C42.3274 83.7449 42.2095 83.7184 42.1113 83.6719C42.0131 83.6255 41.928 83.5657 41.8625 83.4927C41.797 83.4197 41.7446 83.3467 41.7119 83.2736C41.6792 83.2006 41.653 83.1409 41.6399 83.0878C41.6268 83.0413 41.6202 83.0148 41.6202 83.0148L40.6774 77.565C40.4613 76.8945 40.1797 76.8812 39.8262 77.5384L38.1696 82.0124L36.1857 77.565C35.9958 77.1999 35.7928 77.0206 35.5898 77.0405C35.3803 77.0605 35.2297 77.2662 35.138 77.6579L34.2279 83.3002C34.1821 83.413 34.0773 83.4993 33.9005 83.5591C33.7238 83.6188 33.5535 83.6586 33.3898 83.6852C33.3243 83.6985 33.272 83.7118 33.2261 83.7184C33.1672 83.725 33.1148 83.7317 33.069 83.7317C33.0624 83.7317 33.0493 83.7383 33.0362 83.7449C33.0232 83.7582 33.0101 83.7715 33.0035 83.7848C32.997 83.798 32.997 83.8113 33.0101 83.8246C33.0166 83.8445 33.0428 83.8578 33.0821 83.8644C33.1148 83.8711 33.1737 83.8777 33.2523 83.8777H35.4785C35.4982 83.8777 35.5178 83.8711 35.5309 83.8578C35.544 83.8445 35.5506 83.8312 35.5506 83.8113C35.5506 83.7914 35.544 83.7715 35.5309 83.7582C35.5178 83.7516 35.4982 83.7449 35.4785 83.7449C35.1577 83.725 34.9678 83.6387 34.8958 83.4794C34.8238 83.3267 34.8172 83.1077 34.8761 82.8223L35.5767 78.4611L38.0256 83.818L40.0553 78.481L40.7232 83.0413C40.828 83.3666 40.6577 83.5923 40.2059 83.7184C40.1798 83.725 40.147 83.725 40.1143 83.7317C40.0946 83.7317 40.075 83.7317 40.0553 83.7317C40.0095 83.7383 39.9768 83.7582 39.9637 83.7781C39.944 83.8047 39.9571 83.8246 39.9964 83.8445C40.0357 83.8644 40.1143 83.8777 40.2387 83.8777H42.4649C42.4845 83.8777 42.5042 83.8711 42.5173 83.8578C42.5304 83.8445 42.5369 83.8312 42.5369 83.8113C42.5369 83.7914 42.5304 83.7715 42.5173 83.7582C42.4976 83.7516 42.4845 83.7449 42.4649 83.7449Z" fill="black"/>
<path d="M45.1298 77.0804C44.4292 77.0804 43.8268 77.326 43.3226 77.8238C42.8185 78.3217 42.5696 78.9191 42.5696 79.6161V81.3553C42.5696 82.0522 42.8185 82.643 43.3226 83.1409C43.8268 83.6387 44.4292 83.891 45.1298 83.891C45.8304 83.891 46.4328 83.6387 46.9369 83.1409C47.4346 82.643 47.6834 82.0522 47.6834 81.3553V79.6161C47.6834 78.9191 47.4346 78.3217 46.9369 77.8238C46.4328 77.326 45.8304 77.0804 45.1298 77.0804ZM46.7405 81.4017C46.7405 81.8996 46.5965 82.3841 46.3149 82.8554C46.0334 83.3267 45.634 83.5591 45.1298 83.5591C44.606 83.5591 44.2066 83.3201 43.9316 82.8422C43.65 82.3642 43.5125 81.8863 43.5125 81.4017V79.563C43.5125 79.0651 43.6566 78.5806 43.9447 78.1093C44.2262 77.638 44.6256 77.4056 45.1298 77.4056C45.6471 77.4056 46.0465 77.6446 46.328 78.1225C46.603 78.6005 46.7405 79.0784 46.7405 79.563V81.4017Z" fill="black"/>
<path d="M48.5215 77.2065C49.0256 77.253 49.2745 77.4986 49.2745 77.93V83.0878C49.2745 83.3599 49.2024 83.5392 49.0649 83.6188C48.9274 83.6985 48.7376 83.7383 48.5084 83.7383C48.4756 83.7383 48.456 83.7516 48.4495 83.7715C48.4364 83.7914 48.4364 83.818 48.4495 83.8379C48.456 83.8578 48.4756 83.8711 48.5018 83.8711C49.2548 83.8711 50.0536 83.8711 50.8852 83.8711C50.9114 83.8711 50.931 83.8578 50.9376 83.8379C50.9441 83.818 50.9441 83.7914 50.9376 83.7715C50.9245 83.7516 50.9048 83.7383 50.8721 83.7383C50.6429 83.7383 50.4596 83.6985 50.3155 83.6122C50.1715 83.5325 50.0995 83.3599 50.0995 83.0944V78.0429C50.0995 77.6778 50.2893 77.4388 50.6626 77.3326C50.7149 77.326 50.7673 77.3193 50.8197 77.3193C51.2257 77.3193 51.5792 77.4787 51.8804 77.8039C52.1751 78.1292 52.3257 78.4744 52.3257 78.8262V79.3838C52.3257 79.6891 52.2144 79.9945 51.9917 80.2932C51.7626 80.5985 51.4876 80.8109 51.1667 80.9371C50.9768 81.0234 50.8001 81.0632 50.6233 81.0632H50.5513C50.5382 81.0632 50.5251 81.0698 50.5185 81.0765C50.5054 81.0831 50.4989 81.0964 50.4989 81.103C50.4989 81.1229 50.5054 81.1362 50.5185 81.1428L52.4697 83.2936C53.0197 83.7914 53.8054 83.9839 54.8334 83.8777C55.0626 83.8711 55.2132 83.8578 55.2852 83.8312C55.3572 83.8047 55.3834 83.7781 55.3572 83.7582C55.3245 83.7383 55.2721 83.7383 55.1935 83.7449C54.6435 83.7449 54.231 83.6653 53.956 83.5126C53.681 83.3599 53.4519 83.1741 53.2685 82.9683C53.2096 82.9086 53.1572 82.8554 53.0983 82.8023L51.553 81.0433C52.6727 80.6915 53.2292 80.1272 53.2292 79.3506V78.8594C53.2292 78.4013 53.0787 78.0362 52.7709 77.7575C52.4632 77.4853 52.1554 77.2928 51.8542 77.1799C51.6971 77.1202 51.5399 77.0804 51.3828 77.0671C51.2191 77.0605 51.0358 77.0605 50.8328 77.0671C50.7739 77.0671 50.7084 77.0671 50.6364 77.0737H48.5215C48.4887 77.0737 48.4691 77.087 48.4625 77.1069C48.4495 77.1268 48.4495 77.1534 48.4625 77.1733C48.4691 77.1932 48.4887 77.2065 48.5215 77.2065Z" fill="black"/>
<path d="M59.0567 77.2065C59.1942 77.2065 59.3186 77.2397 59.4364 77.3127C59.5543 77.3857 59.6591 77.4654 59.7507 77.565C59.8358 77.6645 59.9079 77.7508 59.9602 77.8238C60.0126 77.9035 60.0388 77.9433 60.0388 77.9433L61.9245 80.5653V83.1011C61.9245 83.3732 61.8525 83.5524 61.715 83.6255C61.5775 83.7051 61.3876 83.7449 61.1585 83.7449C61.1257 83.7449 61.1061 83.7582 61.0995 83.7781C61.0864 83.798 61.0864 83.8246 61.0995 83.8445C61.1061 83.8644 61.1257 83.8777 61.1519 83.8777H62.3436H62.5466H63.7317C63.7644 83.8777 63.7841 83.8644 63.7906 83.8445C63.7972 83.8246 63.7972 83.798 63.7906 83.7781C63.7841 83.7582 63.7644 83.7449 63.7317 83.7449C63.5025 83.7449 63.3192 83.7051 63.1882 83.6188C63.0507 83.5392 62.9787 83.3666 62.9656 83.1011L62.8543 80.4525L64.5109 77.9433C64.6156 77.7375 64.7662 77.5583 64.9692 77.4189C65.1722 77.2795 65.421 77.2065 65.7156 77.2065C65.7353 77.2131 65.7549 77.2065 65.7746 77.1932C65.7877 77.1799 65.7942 77.16 65.7942 77.1401C65.7942 77.1202 65.7877 77.1069 65.7811 77.0937C65.768 77.0804 65.7549 77.0737 65.7353 77.0737H63.9543C63.8365 77.0737 63.7579 77.0804 63.7121 77.1003C63.6662 77.1202 63.6531 77.1468 63.6662 77.1667C63.6793 77.1932 63.7121 77.2131 63.7579 77.2198C63.771 77.2198 63.7841 77.2198 63.8037 77.2198C63.8365 77.2264 63.8758 77.2264 63.9085 77.233C64.0984 77.2862 64.19 77.3724 64.1769 77.4919C64.1573 77.6181 64.1049 77.7508 64.0198 77.8969C64.0133 77.9035 64.0133 77.9101 64.0067 77.9168L62.5531 79.9015L61.0995 77.9168C61.0144 77.7641 60.9817 77.6247 60.9948 77.4986C61.0079 77.3724 61.1126 77.2862 61.3156 77.233C61.3484 77.2264 61.3745 77.2264 61.4073 77.2264C61.4269 77.2198 61.4466 77.2198 61.4662 77.2198C61.512 77.2131 61.5448 77.1932 61.5579 77.1667C61.571 77.1468 61.5579 77.1202 61.512 77.1003C61.4662 77.0804 61.3876 77.0737 61.2698 77.0737H59.0436C59.0239 77.0737 59.0043 77.0804 58.9977 77.0937C58.9846 77.1069 58.9781 77.1202 58.9781 77.1401C58.9846 77.16 58.9912 77.1799 59.0043 77.1932C59.0174 77.2065 59.037 77.2131 59.0567 77.2065Z" fill="black"/>
<path d="M70.5085 82.7625C70.5085 83.1475 70.4169 83.3931 70.2335 83.506C70.0437 83.6188 69.8014 83.6786 69.4937 83.6786C69.4544 83.6786 69.4282 83.6918 69.4151 83.725C69.402 83.7582 69.402 83.7848 69.4151 83.818C69.4282 83.8512 69.4544 83.8644 69.4871 83.8711L74.6401 83.8843C74.9675 83.8976 75.1836 83.8578 75.2949 83.7715C75.4062 83.6852 75.452 83.5126 75.4389 83.2604V81.8863C75.4389 81.8597 75.4324 81.8398 75.4127 81.8199C75.3931 81.8 75.3735 81.7934 75.3473 81.7934C75.3211 81.7934 75.3014 81.8 75.2818 81.8199C75.2621 81.8398 75.2556 81.8597 75.2556 81.8863C75.2556 82.5966 75.1377 82.9816 74.9086 83.028C74.6794 83.0745 74.1228 83.1011 73.252 83.1011C73.2389 83.1011 73.2258 83.1011 73.2062 83.1011C72.1193 83.1143 71.8966 83.0811 71.7722 83.0081C71.6478 82.9351 71.5824 82.736 71.5889 82.4041C71.5824 81.6341 71.5824 80.7844 71.5824 79.9546C71.5824 79.5829 71.5824 79.2245 71.5824 78.8726H73.2193C73.8937 78.9457 74.2342 79.2908 74.2342 79.8949C74.2342 79.9214 74.2407 79.9414 74.2603 79.9613C74.28 79.9812 74.2996 79.9878 74.3258 79.9878C74.352 79.9878 74.3717 79.9812 74.3913 79.9613C74.4109 79.9414 74.4175 79.9214 74.424 79.8949V78.0031C74.424 77.8769 74.4175 77.784 74.3979 77.7309C74.3782 77.6844 74.352 77.6579 74.3258 77.6579C74.2996 77.6645 74.28 77.6778 74.2603 77.6977C74.2407 77.7176 74.2276 77.7375 74.2211 77.7575C74.208 77.9831 74.1032 78.1292 73.9002 78.2022C73.6973 78.2752 73.4681 78.3084 73.2193 78.3084H71.5824V77.0804V75.0027H74.0836C74.4371 75.0027 74.7187 75.1487 74.9348 75.4341C75.1508 75.7262 75.2556 76.0249 75.2556 76.3236C75.2556 76.3502 75.2621 76.3701 75.2818 76.39C75.3014 76.4099 75.3211 76.4166 75.3473 76.4166C75.3735 76.4166 75.3931 76.4099 75.4127 76.39C75.4324 76.3701 75.4389 76.3502 75.4389 76.3236V74.4915C75.4389 74.3787 75.4324 74.299 75.4258 74.2459C75.4127 74.1995 75.3996 74.1663 75.38 74.1596C75.3604 74.153 75.3473 74.1596 75.3276 74.1729C75.308 74.1862 75.2883 74.1995 75.2687 74.2194C75.2621 74.2327 75.249 74.2393 75.2425 74.2459C75.1443 74.2924 74.8431 74.3256 74.3455 74.3389C73.8478 74.3588 73.2847 74.3654 71.8901 74.3588C70.4954 74.3522 70.705 74.3588 70.2204 74.3522C69.8931 74.3455 69.6573 74.3455 69.5133 74.3455C69.4871 74.3455 69.4675 74.3522 69.4478 74.3721C69.4282 74.392 69.4216 74.4119 69.4216 74.4384C69.4216 74.465 69.4282 74.4849 69.4478 74.5048C69.4675 74.5247 69.4871 74.5314 69.5133 74.5314C70.1746 74.6044 70.502 74.9496 70.502 75.5669C70.502 76.7817 70.502 77.9964 70.502 79.2112C70.5085 80.4259 70.5085 81.5478 70.5085 82.7625Z" fill="black"/>
<path d="M76.6175 82.4704C76.6175 82.643 76.611 82.7758 76.6044 82.882C76.5913 83.0679 76.5979 83.2073 76.6175 83.2936C76.6372 83.3865 76.7026 83.4595 76.8074 83.5193C76.9187 83.579 77.102 83.652 77.3508 83.7383C77.9401 83.9441 78.5491 83.8976 79.1711 83.6188C79.7866 83.34 80.1402 82.8488 80.2253 82.1518C80.2318 81.6606 80.0681 81.2225 79.7276 80.8441C79.3806 80.4525 79.0074 80.1073 78.5884 79.7953C78.2806 79.5564 78.0122 79.324 77.7895 79.105C77.5669 78.8793 77.4556 78.6536 77.4556 78.4345C77.4556 78.1159 77.5407 77.857 77.7175 77.6579C77.8878 77.472 78.1169 77.3724 78.405 77.3724C78.7193 77.3724 78.9812 77.4919 79.2038 77.7309C79.4134 77.9632 79.5378 78.2288 79.5509 78.5275C79.5509 78.5607 79.5574 78.5872 79.564 78.6138C79.5705 78.6337 79.5967 78.6469 79.6229 78.6469C79.6949 78.6469 79.7211 78.6138 79.7146 78.5341C79.7146 78.5341 79.7211 78.481 79.7276 78.3814C79.7342 78.2752 79.7407 78.1491 79.7473 78.0097C79.7538 77.8637 79.7538 77.7243 79.7473 77.5849C79.7407 77.4455 79.7211 77.3393 79.6949 77.2596C79.6622 77.1799 79.6163 77.16 79.5443 77.1866C79.5181 77.2131 79.4788 77.2264 79.4396 77.2264C79.3872 77.2264 79.2497 77.1932 79.014 77.1401C78.7782 77.0804 78.5753 77.0538 78.3919 77.0538C77.9729 77.0538 77.5604 77.2131 77.1413 77.5318C76.7223 77.8504 76.5979 78.3084 76.755 78.8992C76.958 79.3439 77.3116 79.7555 77.8288 80.1272C78.1824 80.4127 78.5098 80.7246 78.811 81.0698C79.1056 81.4084 79.2497 81.8266 79.2497 82.331C79.2497 82.6895 79.1515 82.9683 78.9681 83.1741C78.7782 83.3799 78.5294 83.4861 78.2217 83.4861C78.2086 83.4861 78.1955 83.4861 78.1824 83.4861C77.7633 83.4861 77.4229 83.4462 77.1675 83.3666C76.9056 83.2803 76.7812 82.9749 76.7812 82.4704C76.7812 82.4572 76.7812 82.4439 76.7812 82.4173C76.7747 82.3974 76.7681 82.3775 76.755 82.3642C76.7419 82.3443 76.7223 82.331 76.7026 82.331C76.683 82.331 76.6633 82.3443 76.6502 82.3642C76.6372 82.3775 76.6306 82.3974 76.6241 82.4173C76.6175 82.4439 76.6175 82.4572 76.6175 82.4704Z" fill="black"/>
<path d="M80.6705 77.2065C81.1747 77.253 81.4235 77.4986 81.4235 77.93V83.0878C81.4235 83.3599 81.3515 83.5392 81.214 83.6188C81.0765 83.6985 80.8866 83.7383 80.6574 83.7383C80.6247 83.7383 80.605 83.7516 80.5985 83.7715C80.5854 83.7914 80.5854 83.818 80.5985 83.8379C80.605 83.8578 80.6247 83.8711 80.6509 83.8711C81.4431 83.8711 82.242 83.8711 83.0342 83.8711C83.0539 83.8644 83.0735 83.8512 83.0866 83.8312C83.0932 83.8113 83.0932 83.7914 83.0866 83.7715C83.0735 83.7516 83.0539 83.7383 83.0211 83.7383C82.792 83.7383 82.6086 83.6985 82.4646 83.6122C82.3205 83.5325 82.2485 83.3599 82.2485 83.0878V78.0429C82.2485 77.6778 82.4384 77.4388 82.8116 77.3326C82.864 77.326 82.9164 77.3193 82.9687 77.3193C83.3747 77.3193 83.689 77.4787 83.9182 77.8039C84.1408 78.1292 84.2521 78.4744 84.2521 78.8262V79.4103C84.2521 79.7157 84.1735 80.021 84.0164 80.3197C83.8592 80.6251 83.6235 80.8375 83.3158 80.9636C83.1259 81.0499 82.9491 81.0897 82.7723 81.0897H82.6937C82.6806 81.0897 82.6676 81.0897 82.661 81.0964C82.6545 81.103 82.6479 81.1163 82.6479 81.1296C82.6479 81.1428 82.6545 81.1495 82.661 81.1561C82.6676 81.1628 82.6806 81.1694 82.6937 81.176C82.7265 81.176 82.7592 81.176 82.792 81.176C82.9556 81.176 83.0866 81.1694 83.1914 81.1628C83.2961 81.1561 83.4402 81.1362 83.6235 81.0897C84.6449 80.7446 85.1557 80.1737 85.1557 79.3771V78.8594C85.1557 78.4013 85.0378 78.0362 84.8021 77.7575C84.5598 77.4853 84.2914 77.2928 83.9967 77.1799C83.8461 77.1202 83.689 77.0804 83.5318 77.0671C83.3682 77.0605 83.1848 77.0605 82.9818 77.0671C82.9229 77.0671 82.8574 77.0671 82.7854 77.0737H80.6705C80.6509 77.0737 80.6312 77.0804 80.6181 77.0937C80.605 77.1069 80.5985 77.1202 80.5985 77.1401C80.5985 77.16 80.605 77.1733 80.6181 77.1866C80.6312 77.1999 80.6509 77.2065 80.6705 77.2065Z" fill="black"/>
<path d="M86.2688 83.0811C86.2688 83.3533 86.1967 83.5259 86.0592 83.6055C85.9152 83.6852 85.7319 83.725 85.5027 83.725C85.47 83.725 85.4438 83.7383 85.4372 83.7582C85.4307 83.7781 85.4307 83.8047 85.4372 83.8246C85.4438 83.8445 85.4634 83.8578 85.4961 83.8578L89.6015 83.8711C89.8438 83.8777 90.0075 83.8512 90.0926 83.7914C90.1777 83.7317 90.2105 83.6122 90.2039 83.433V82.4638C90.2039 82.4439 90.1974 82.4306 90.1843 82.4173C90.1646 82.4041 90.1515 82.3974 90.1319 82.3974C90.1123 82.3974 90.0992 82.4041 90.0861 82.4173C90.0664 82.4306 90.0599 82.4439 90.0599 82.4638C90.0599 82.9617 89.9747 83.0015 89.798 83.1143C89.6212 83.2272 89.2087 83.2869 88.5474 83.2869C88.5408 83.2869 88.5277 83.2869 88.5146 83.2869C87.4866 83.2936 87.3164 83.2736 87.2247 83.2205C87.1265 83.1741 87.0807 83.028 87.0807 82.7957C87.0741 82.4837 87.0741 81.8996 87.0807 81.3022C87.0807 80.9105 87.0807 80.5388 87.0807 80.187H88.5277C89.0384 80.2334 89.2938 80.4724 89.2938 80.9039C89.2938 80.9238 89.3003 80.9371 89.3134 80.9503C89.3265 80.9636 89.3396 80.9703 89.3593 80.9703C89.3789 80.9703 89.3985 80.9636 89.4116 80.9503C89.4247 80.9371 89.4313 80.9238 89.4313 80.9039V79.6626C89.4313 79.5895 89.4247 79.5364 89.4182 79.4966C89.4117 79.4634 89.3986 79.4369 89.3855 79.4302C89.3658 79.4236 89.3527 79.417 89.3396 79.4236C89.32 79.4302 89.3069 79.4435 89.3003 79.4568C89.2872 79.4701 89.2807 79.4833 89.2807 79.49C89.2741 79.6493 89.189 79.7555 89.0384 79.802C88.8813 79.8551 88.711 79.8816 88.5212 79.8816H87.0807V79.012L87.0741 77.5517H89.1759C89.4444 77.5517 89.6539 77.6512 89.8176 77.8504C89.9813 78.0562 90.0599 78.2619 90.0599 78.481C90.0599 78.5009 90.0664 78.5142 90.0861 78.5275C90.0992 78.5407 90.1123 78.5474 90.1319 78.5474C90.1515 78.5474 90.1646 78.5407 90.1843 78.5275C90.1974 78.5142 90.2039 78.5009 90.2039 78.481V77.1866C90.2039 77.1136 90.1974 77.0538 90.1908 77.0206C90.1843 76.9874 90.1712 76.9609 90.1581 76.9543C90.145 76.9476 90.1319 76.9543 90.1188 76.9609C90.0992 76.9742 90.0861 76.9874 90.073 77.0007C90.0664 77.0074 90.0599 77.014 90.0533 77.0206C89.9813 77.0538 89.7521 77.0804 89.3789 77.087C88.9991 77.1003 88.5735 77.1069 87.3164 77.1003C86.0592 77.0937 86.4194 77.1003 86.0461 77.0937C85.8039 77.087 85.6206 77.087 85.5092 77.087C85.4896 77.087 85.4765 77.0937 85.4634 77.1069C85.4503 77.1202 85.4438 77.1335 85.4438 77.1534C85.4438 77.1733 85.4503 77.1866 85.4634 77.1999C85.4765 77.2131 85.4896 77.2198 85.5092 77.2198C86.0134 77.2662 86.2622 77.5118 86.2622 77.9433C86.2622 78.7996 86.2622 79.6559 86.2622 80.5122C86.2688 81.3685 86.2688 82.2248 86.2688 83.0811Z" fill="black"/>
<path d="M90.9503 77.2065C91.4545 77.253 91.7033 77.4986 91.7033 77.93V83.0878C91.7033 83.3599 91.6313 83.5392 91.4938 83.6188C91.3563 83.6985 91.1664 83.7383 90.9373 83.7383C90.9045 83.7383 90.8849 83.7516 90.8783 83.7715C90.8652 83.7914 90.8652 83.818 90.8783 83.8379C90.8849 83.8578 90.9045 83.8711 90.9307 83.8711C91.6837 83.8711 92.4825 83.8711 93.3141 83.8711C93.3402 83.8711 93.3599 83.8578 93.3664 83.8379C93.373 83.818 93.373 83.7914 93.3664 83.7715C93.3533 83.7516 93.3337 83.7383 93.301 83.7383C93.0718 83.7383 92.8885 83.6985 92.7444 83.6122C92.6004 83.5325 92.5283 83.3599 92.5283 83.0944V78.0429C92.5283 77.6778 92.7182 77.4388 93.0914 77.3326C93.1438 77.326 93.1962 77.3193 93.2486 77.3193C93.6545 77.3193 94.0081 77.4787 94.3093 77.8039C94.6039 78.1292 94.7545 78.4744 94.7545 78.8262V79.3838C94.7545 79.6891 94.6432 79.9945 94.4206 80.2932C94.1914 80.5985 93.9164 80.8109 93.5956 80.9371C93.4057 81.0234 93.2289 81.0632 93.0522 81.0632H92.9801C92.967 81.0632 92.9539 81.0698 92.9474 81.0765C92.9343 81.0831 92.9277 81.0964 92.9277 81.103C92.9277 81.1229 92.9343 81.1362 92.9474 81.1428L94.8986 83.2936C95.4486 83.7914 96.2343 83.9839 97.2623 83.8777C97.4915 83.8711 97.6421 83.8578 97.7141 83.8312C97.7861 83.8047 97.8123 83.7781 97.7861 83.7582C97.7534 83.7383 97.701 83.7383 97.6224 83.7449C97.0724 83.7449 96.6599 83.6653 96.3849 83.5126C96.1099 83.3599 95.8807 83.1741 95.6974 82.9683C95.6385 82.9086 95.5861 82.8554 95.5272 82.8023L93.9819 81.0433C95.1016 80.6915 95.6581 80.1272 95.6581 79.3506V78.8594C95.6581 78.4013 95.5075 78.0362 95.1998 77.7575C94.892 77.4853 94.5843 77.2928 94.2831 77.1799C94.126 77.1202 93.9688 77.0804 93.8117 77.0671C93.648 77.0605 93.4647 77.0605 93.2617 77.0671C93.2027 77.0671 93.1373 77.0671 93.0652 77.0737H90.9503C90.9176 77.0737 90.898 77.087 90.8914 77.1069C90.8783 77.1268 90.8783 77.1534 90.8914 77.1733C90.898 77.1932 90.9176 77.2065 90.9503 77.2065Z" fill="black"/>
<path d="M103.627 83.1674C103.692 83.2869 103.718 83.3931 103.705 83.4927C103.686 83.5989 103.594 83.6653 103.411 83.7118C103.378 83.7184 103.352 83.7184 103.325 83.725C103.299 83.725 103.28 83.725 103.26 83.7317C103.214 83.7383 103.181 83.7516 103.162 83.7715C103.142 83.798 103.155 83.818 103.201 83.8379C103.24 83.8578 103.319 83.8711 103.437 83.8711H105.414C105.434 83.8711 105.447 83.8644 105.46 83.8512C105.473 83.8379 105.48 83.8246 105.48 83.8047C105.48 83.7848 105.473 83.7649 105.46 83.7516C105.447 83.7449 105.434 83.7383 105.414 83.7383C105.159 83.7317 104.975 83.6586 104.851 83.5193C104.727 83.3931 104.635 83.267 104.596 83.1475C104.196 82.0722 103.797 80.9902 103.397 79.9148C103.116 79.1382 102.821 78.3748 102.54 77.6048C102.239 76.868 101.931 76.8879 101.616 77.6579L99.3183 83.2405C99.2397 83.3666 99.1087 83.4728 98.932 83.5458C98.7486 83.6255 98.5784 83.6786 98.4343 83.7118C98.3819 83.7184 98.3296 83.725 98.2772 83.7317C98.2706 83.7317 98.2575 83.7383 98.2444 83.7449C98.2314 83.7516 98.2248 83.7649 98.2183 83.7781C98.2117 83.798 98.2117 83.8113 98.2183 83.8246C98.2248 83.8379 98.251 83.8512 98.2903 83.8578C98.3296 83.8644 98.3885 83.8711 98.4605 83.8711H100.713C100.733 83.8711 100.752 83.8644 100.765 83.8512C100.778 83.8379 100.785 83.8246 100.785 83.8047C100.785 83.7848 100.778 83.7649 100.765 83.7516C100.752 83.7449 100.733 83.7383 100.713 83.7383C100.359 83.7184 100.143 83.6255 100.065 83.4396C99.9861 83.267 99.9992 83.0546 100.111 82.8023L100.7 81.3088H102.926L103.627 83.1674ZM100.798 81.03L101.8 78.4876L102.756 81.03H100.798Z" fill="black"/>
<path d="M106.9 83.0148C106.9 83.194 106.815 83.3467 106.645 83.4728C106.468 83.5989 106.292 83.6786 106.108 83.7184C106.062 83.725 106.01 83.7317 105.958 83.7317C105.951 83.7317 105.938 83.7383 105.925 83.7449C105.905 83.7582 105.899 83.7715 105.892 83.7848C105.886 83.798 105.886 83.8113 105.892 83.8246C105.899 83.8445 105.925 83.8578 105.964 83.8644C106.003 83.8711 106.062 83.8777 106.141 83.8711H108.367C108.387 83.8711 108.406 83.8644 108.42 83.8512C108.433 83.8445 108.439 83.8246 108.439 83.8047C108.439 83.7848 108.433 83.7715 108.42 83.7582C108.406 83.7449 108.387 83.7383 108.367 83.7383C108.145 83.7383 107.928 83.6719 107.712 83.5392C107.496 83.4064 107.392 83.2338 107.392 83.0148V80.4658V78.6469V78.5009L111.15 83.3267C111.156 83.3334 111.156 83.3334 111.163 83.34C111.209 83.3931 111.274 83.4661 111.366 83.5591C111.451 83.6586 111.549 83.7383 111.648 83.8047C111.746 83.8711 111.837 83.891 111.909 83.8578C111.981 83.8312 112.014 83.7118 112.014 83.506C112.014 82.5567 112.014 81.6341 112.014 80.7512V77.9234C112.014 77.6181 112.073 77.4189 112.191 77.326C112.309 77.2397 112.499 77.1932 112.767 77.1999C112.787 77.1999 112.8 77.1932 112.813 77.1799C112.826 77.1667 112.833 77.1534 112.833 77.1335C112.833 77.1136 112.826 77.1003 112.813 77.087C112.8 77.0737 112.787 77.0671 112.767 77.0671H110.986C110.849 77.0737 110.77 77.1003 110.757 77.1468C110.744 77.1999 110.809 77.2264 110.96 77.2264C111.215 77.2198 111.373 77.2795 111.431 77.4056C111.49 77.5318 111.523 77.7043 111.523 77.9234V80.7512V82.3576L107.778 77.5052C107.542 77.1932 107.339 77.0405 107.162 77.0538C106.986 77.0737 106.894 77.3127 106.9 77.7774V80.333V83.0148Z" fill="black"/>
<path d="M118.516 77.1932C118.536 77.1932 118.549 77.1866 118.568 77.1733C118.582 77.16 118.588 77.1468 118.595 77.1268C118.595 77.1069 118.588 77.0937 118.582 77.0804C118.568 77.0671 118.549 77.0605 118.529 77.0605C117.973 77.0605 117.449 77.0605 116.971 77.0671C116.165 77.0737 115.301 77.0737 114.378 77.0671C113.913 77.0737 113.612 77.2065 113.474 77.472C113.33 77.7375 113.317 78.0628 113.442 78.4412C113.461 78.4876 113.494 78.5142 113.54 78.5208C113.579 78.5275 113.618 78.5208 113.651 78.4943C113.684 78.4744 113.697 78.4412 113.69 78.3947C113.605 78.0562 113.658 77.8172 113.848 77.6911C114.031 77.565 114.404 77.5118 114.974 77.5384L116.637 77.5318C116.637 77.5318 116.506 77.784 116.244 78.2819C115.982 78.7797 115.674 79.3639 115.327 80.0608C114.98 80.7578 114.646 81.342 114.352 81.9062C114.051 82.4704 113.854 82.8422 113.762 83.0214C113.762 83.0214 113.743 83.0612 113.71 83.1342C113.671 83.2073 113.612 83.2936 113.533 83.3865C113.455 83.4861 113.356 83.5657 113.232 83.6387C113.108 83.7118 112.951 83.7449 112.774 83.7516C112.754 83.7516 112.741 83.7582 112.728 83.7649C112.708 83.7781 112.702 83.798 112.702 83.818C112.695 83.8379 112.702 83.8512 112.715 83.8644C112.728 83.8777 112.741 83.8843 112.761 83.8843C113.33 83.8843 113.9 83.8843 114.47 83.8777C115.465 83.8711 116.467 83.8711 117.475 83.8777C117.927 83.8711 118.195 83.7317 118.274 83.4661C118.352 83.2006 118.326 82.8754 118.189 82.497C118.162 82.4373 118.13 82.3974 118.084 82.3908C118.038 82.3842 118.005 82.3974 117.973 82.424C117.94 82.4572 117.927 82.497 117.94 82.5435C118.123 83.1874 117.77 83.4728 116.873 83.3998L114.653 83.4064C114.653 83.4064 114.784 83.1542 115.052 82.6563C115.314 82.1585 115.622 81.5743 115.976 80.9039C116.323 80.2334 116.65 79.6227 116.945 79.032C117.239 78.4677 117.436 78.1026 117.534 77.9234C117.534 77.9234 117.56 77.8836 117.606 77.8106C117.652 77.7375 117.724 77.6512 117.815 77.5517C117.901 77.4521 118.005 77.3724 118.123 77.2994C118.241 77.2264 118.372 77.1932 118.516 77.1932Z" fill="black"/>
<path d="M124.147 83.1674C124.212 83.2869 124.239 83.3931 124.226 83.4927C124.206 83.5989 124.114 83.6653 123.931 83.7118C123.898 83.7184 123.872 83.7184 123.846 83.725C123.82 83.725 123.8 83.725 123.78 83.7317C123.735 83.7383 123.702 83.7516 123.682 83.7715C123.662 83.798 123.676 83.818 123.721 83.8379C123.761 83.8578 123.839 83.8711 123.957 83.8711H125.935C125.954 83.8711 125.967 83.8644 125.98 83.8512C125.993 83.8379 126 83.8246 126 83.8047C126 83.7848 125.993 83.7649 125.98 83.7516C125.967 83.7449 125.954 83.7383 125.935 83.7383C125.679 83.7317 125.496 83.6586 125.371 83.5193C125.247 83.3931 125.155 83.267 125.116 83.1475C124.717 82.0722 124.317 80.9902 123.918 79.9148C123.636 79.1382 123.342 78.3748 123.06 77.6048C122.759 76.868 122.451 76.8879 122.137 77.6579L119.839 83.2405C119.76 83.3666 119.629 83.4728 119.452 83.5458C119.269 83.6255 119.099 83.6786 118.955 83.7118C118.902 83.7184 118.85 83.725 118.798 83.7317C118.791 83.7317 118.778 83.7383 118.765 83.7449C118.752 83.7516 118.745 83.7649 118.739 83.7781C118.732 83.798 118.732 83.8113 118.739 83.8246C118.745 83.8379 118.771 83.8512 118.811 83.8578C118.85 83.8644 118.909 83.8711 118.981 83.8711H121.233C121.253 83.8711 121.273 83.8644 121.286 83.8512C121.299 83.8379 121.305 83.8246 121.305 83.8047C121.305 83.7848 121.299 83.7649 121.286 83.7516C121.273 83.7449 121.253 83.7383 121.233 83.7383C120.88 83.7184 120.664 83.6255 120.585 83.4396C120.507 83.267 120.52 83.0546 120.631 82.8023L121.22 81.3088H123.446L124.147 83.1674ZM121.318 81.03L122.32 78.4876L123.276 81.03H121.318Z" fill="black"/>
</svg>
