<svg width="51" height="44" viewBox="0 0 51 44" fill="none" xmlns="http://www.w3.org/2000/svg">
<path d="M46.275 39.4922L28.6964 2.05611C28.3982 1.45775 27.939 0.955104 27.3708 0.605067C26.8025 0.25503 26.148 0.0715854 25.4812 0.0755008C24.8144 0.0794163 24.162 0.270535 23.5979 0.627222C23.0338 0.983908 22.5805 1.49192 22.2893 2.09374L4.725 39.4922H0.5V43.0754H50.5V39.4922H46.275ZM25.4821 3.622L34.3339 22.4717L30.8571 24.7972L25.5 21.214L20.1429 24.7972L16.6518 22.4628L25.4821 3.622ZM15.1161 25.7414L20.1429 29.1043L25.5 25.5211L30.8571 29.1043L35.875 25.7486L42.325 39.4922H8.66964L15.1161 25.7414Z" fill="#75585A"/>
</svg>
