<svg width="71" height="66" viewBox="0 0 71 66" fill="none" xmlns="http://www.w3.org/2000/svg">
<path fill-rule="evenodd" clip-rule="evenodd" d="M9.7901 59.5157H61.6877C61.0744 56.4371 59.4643 52.7801 56.4551 49.6149C52.53 45.4865 46.0791 42.0475 35.9438 42.0475C25.8261 42.0475 19.5117 45.4749 15.5355 49.6233C12.5751 52.7117 10.7963 56.323 9.7901 59.5157ZM11.4675 45.7241C16.5777 40.3928 24.3961 36.4126 35.9438 36.4126C47.4737 36.4126 55.4515 40.3813 60.5389 45.7324C65.5502 51.0035 67.6187 57.4772 67.6187 62.3331C67.6187 63.8891 66.3573 65.1506 64.8012 65.1506H6.19833C5.36445 65.1506 4.5734 64.7812 4.03808 64.1418C3.50276 63.5024 3.27817 62.6588 3.42475 61.8379C4.23106 57.3223 6.4326 50.9768 11.4675 45.7241Z" fill="#75585A"/>
<path d="M15.6529 17.4252H11.3839V13.0438C11.3839 12.2374 10.7467 11.5834 9.96093 11.5834H7.11495C6.32919 11.5834 5.69196 12.2374 5.69196 13.0438V17.4252H1.42299C0.637233 17.4252 0 18.0792 0 18.8856V21.8065C0 22.6129 0.637233 23.2669 1.42299 23.2669H5.69196V33.49C5.69196 34.2964 6.32919 34.9504 7.11495 34.9504H9.96093C10.7467 34.9504 11.3839 34.2964 11.3839 33.49V23.2669H15.6529C16.4386 23.2669 17.0759 22.6129 17.0759 21.8065V18.8856C17.0759 18.0792 16.4386 17.4252 15.6529 17.4252Z" fill="#75585A"/>
<path d="M69.5767 17.4252H65.3077V13.0438C65.3077 12.2374 64.6705 11.5834 63.8848 11.5834H61.0388C60.253 11.5834 59.6158 12.2374 59.6158 13.0438V17.4252H55.3468C54.5611 17.4252 53.9238 18.0792 53.9238 18.8856V21.8065C53.9238 22.6129 54.5611 23.2669 55.3468 23.2669H59.6158V33.49C59.6158 34.2964 60.253 34.9504 61.0388 34.9504H63.8848C64.6705 34.9504 65.3077 34.2964 65.3077 33.49V23.2669H69.5767C70.3625 23.2669 70.9997 22.6129 70.9997 21.8065V18.8856C70.9997 18.0792 70.3625 17.4252 69.5767 17.4252Z" fill="#75585A"/>
<path d="M44.4874 7.6513H39.095V2.17466C39.095 1.16662 38.2901 0.349117 37.2976 0.349117H33.7026C32.7101 0.349117 31.9052 1.16662 31.9052 2.17466V7.6513H26.5128C25.5203 7.6513 24.7153 8.4688 24.7153 9.47685V13.1279C24.7153 14.136 25.5203 14.9535 26.5128 14.9535H31.9052V27.7323C31.9052 28.7404 32.7101 29.5579 33.7026 29.5579H37.2976C38.2901 29.5579 39.095 28.7404 39.095 27.7323V14.9535H44.4874C45.4799 14.9535 46.2849 14.136 46.2849 13.1279V9.47685C46.2849 8.4688 45.4799 7.6513 44.4874 7.6513Z" fill="#75585A"/>
</svg>
